<?xml version="1.0" encoding="UTF-8" standalone="no"?>
<!DOCTYPE svg PUBLIC "-//W3C//DTD SVG 1.1//EN" "http://www.w3.org/Graphics/SVG/1.1/DTD/svg11.dtd">
<svg width="100%" height="100%" viewBox="0 0 512 512" version="1.1" xmlns="http://www.w3.org/2000/svg" xmlns:xlink="http://www.w3.org/1999/xlink" xml:space="preserve" xmlns:serif="http://www.serif.com/" style="fill-rule:evenodd;clip-rule:evenodd;stroke-linejoin:round;stroke-miterlimit:2;">
    <path d="M464,424L448,424C443.584,424 440,420.408 440,416L440,350.528C449.288,347.216 456,338.416 456,328L456,248C456,231.768 433.384,222.08 406.048,218.112C412.168,211.088 416,202.024 416,192L416,101.752L406.064,104.24C389.784,108.312 375.808,118.816 367.272,133.04C365.432,132.176 363.52,131.408 361.56,130.752L345.648,125.448L336.616,179.656C336.208,182.112 336,184.6 336,187.064C336,198.856 340.656,209.656 348.272,217.784C319.904,221.536 296,231.312 296,248L296,344C296,354.416 302.712,363.216 312,366.528L312,392L304,392C290.768,392 280,402.768 280,416C280,418.816 280.576,421.488 281.472,424L264,424L264,310.528C273.288,307.216 280,298.416 280,288L280,154.992C280,135.696 264.304,120 245.008,120L189.368,120C196.016,112.096 200,102 200,91.064C200,88.6 199.792,86.104 199.384,83.656L190.352,29.448L174.44,34.752C172.48,35.408 170.576,36.168 168.728,37.04C160.2,22.816 146.224,12.312 129.936,8.24L120,5.752L120,96C120,106.856 124.376,116.688 131.424,123.904C125.544,125.72 119.816,128.032 114.456,131.104C88.264,146.064 72,174.088 72,204.248L72,272C72,282.416 78.712,291.216 88,294.528L88,408L32,408C18.768,408 8,418.768 8,432C8,445.232 18.768,456 32,456L44.448,456C41.696,460.728 40,466.144 40,472C40,489.648 54.352,504 72,504L208,504C218.416,504 227.216,497.288 230.528,488L329.48,488C332.792,497.288 341.592,504 352.008,504L464.008,504C486.064,504 504.008,486.056 504.008,464C504.008,441.944 486.056,424 464,424ZM352.4,182.296L358.344,146.608C366.408,149.792 372.928,155.768 376.84,163.584L391.152,156.424C388.424,150.968 384.824,146.136 380.52,142.072C385.072,134.12 391.888,127.656 400,123.496L400,192C400,202.408 393.288,211.2 384,214.512L384,184L368,184L368,212.936C358.36,208.08 352,198.232 352,187.072C352,185.472 352.136,183.872 352.4,182.296ZM368,232.152L368,248L384,248L384,232.152C420.776,233.528 440,244.152 440,248C440,252.112 417.992,264 376,264C334.008,264 312,252.112 312,248C312,244.16 331.224,233.536 368,232.152ZM328,366.528C337.288,363.216 344,354.416 344,344L344,320C344,315.592 347.584,312 352,312C356.416,312 360,315.592 360,320L360,384C360,388.408 356.416,392 352,392L328,392L328,366.528ZM136,27.496C144.112,31.656 150.92,38.12 155.48,46.072C151.176,50.136 147.576,54.968 144.848,60.424L159.16,67.584C163.072,59.76 169.6,53.792 177.656,50.608L183.6,86.296C183.864,87.872 184,89.472 184,91.072C184,102.232 177.64,112.08 168,116.936L168,88L152,88L152,118.512C142.712,115.2 136,106.408 136,96L136,27.496ZM122.392,144.992C131.448,139.816 141.608,136.928 152,136.28L152,152L168,152L168,136L194.904,136C188.768,140.336 183.088,145.4 178.152,151.312C169.328,161.92 156.336,168 142.52,168C130.152,168 118.52,163.184 109.76,154.448C113.576,150.872 117.752,147.64 122.392,144.992ZM24,432C24,427.592 27.584,424 32,424L88,424L88,440L32,440C27.584,440 24,436.408 24,432ZM208,488L72,488C63.176,488 56,480.824 56,472C56,463.176 63.176,456 72,456L136,456C153.648,456 168,441.648 168,424L168,408L152,408L152,424C152,432.824 144.824,440 136,440L104,440L104,294.528C113.288,291.216 120,282.416 120,272L120,248C120,243.592 123.584,240 128,240C132.416,240 136,243.592 136,248L136,368C136,381.232 146.768,392 160,392C173.232,392 184,381.232 184,368L184,280L168,280L168,368C168,372.408 164.416,376 160,376C155.584,376 152,372.408 152,368L152,248C152,234.768 141.232,224 128,224C114.768,224 104,234.768 104,248L104,272C104,276.408 100.416,280 96,280C91.584,280 88,276.408 88,272L88,204.248C88,190.656 92.2,177.68 99.472,166.68C111.136,177.832 126.344,184 142.52,184C161.096,184 178.568,175.816 190.448,161.552C203.984,145.312 223.872,136 245.008,136C255.48,136 264,144.52 264,154.992L264,288C264,292.408 260.416,296 256,296C251.584,296 248,292.408 248,288L248,216C248,202.768 237.232,192 224,192C210.768,192 200,202.768 200,216L200,240C200,244.408 196.416,248 192,248C187.584,248 184,244.408 184,240L184,208L168,208L168,240C168,253.232 178.768,264 192,264C205.232,264 216,253.232 216,240L216,216C216,211.592 219.584,208 224,208C228.416,208 232,211.592 232,216L232,288C232,298.416 238.712,307.216 248,310.528L248,424L200,424L200,440L384,440C388.416,440 392,443.592 392,448C392,452.408 388.416,456 384,456L352,456C341.584,456 332.784,462.712 329.472,472L230.528,472C227.216,462.712 218.416,456 208,456L184,456L184,472L208,472C212.416,472 216,475.592 216,480C216,484.408 212.416,488 208,488ZM464,488L352,488C347.584,488 344,484.408 344,480C344,475.592 347.584,472 352,472L384,472C397.232,472 408,461.232 408,448C408,434.768 397.232,424 384,424L304,424C299.584,424 296,420.408 296,416C296,411.592 299.584,408 304,408L352,408C365.232,408 376,397.232 376,384L376,320C376,306.768 365.232,296 352,296C338.768,296 328,306.768 328,320L328,344C328,348.408 324.416,352 320,352C315.584,352 312,348.408 312,344L312,268.192C327.592,276.2 352.328,280 376,280C399.672,280 424.408,276.2 440,268.192L440,328C440,332.408 436.416,336 432,336C427.584,336 424,332.408 424,328L424,296L408,296L408,328C408,338.416 414.712,347.216 424,350.528L424,416C424,429.232 434.768,440 448,440L464,440C477.232,440 488,450.768 488,464C488,477.232 477.232,488 464,488Z" style="fill:white;fill-rule:nonzero;"/>
</svg>
