<?xml version="1.0" encoding="UTF-8" standalone="no"?>
<!DOCTYPE svg PUBLIC "-//W3C//DTD SVG 1.1//EN" "http://www.w3.org/Graphics/SVG/1.1/DTD/svg11.dtd">
<svg width="100%" height="100%" viewBox="0 0 512 512" version="1.1" xmlns="http://www.w3.org/2000/svg" xmlns:xlink="http://www.w3.org/1999/xlink" xml:space="preserve" xmlns:serif="http://www.serif.com/" style="fill-rule:evenodd;clip-rule:evenodd;stroke-linejoin:round;stroke-miterlimit:2;">
    <g id="Page-1">
        <g id="_019---Heart-Chakra" serif:id="019---Heart-Chakra">
            <path id="Shape" d="M503.467,247.467C498.85,247.467 495.232,242.475 489.242,233.634C483.109,223.512 475.087,214.665 465.613,207.573C462.646,205.559 459.504,203.814 456.226,202.359C458.35,199.448 460.203,196.349 461.764,193.101C466.419,182.217 468.934,170.538 469.171,158.703C469.939,148.079 470.571,141.952 474.539,139.657C477.201,138.143 478.848,135.319 478.854,132.257C478.861,129.195 477.227,126.364 474.571,124.839C471.916,123.314 468.647,123.328 466.005,124.877C462.029,127.181 456.405,124.663 446.822,120.013C436.485,114.321 425.154,110.659 413.44,109.227C409.823,108.927 406.186,108.973 402.577,109.363C402.954,105.791 403.011,102.193 402.748,98.611C401.332,86.87 397.679,75.51 391.987,65.143C387.337,55.561 384.819,49.946 387.123,45.969C388.672,43.327 388.686,40.058 387.161,37.403C385.636,34.748 382.805,33.113 379.743,33.12C376.681,33.127 373.857,34.774 372.343,37.436C370.048,41.412 363.921,42.035 353.297,42.803C341.462,43.04 329.783,45.555 318.899,50.21C315.653,51.775 312.554,53.628 309.641,55.748C308.175,52.472 306.425,49.331 304.41,46.362C297.316,36.904 288.476,28.895 278.366,22.767C269.534,16.759 264.533,13.15 264.533,8.533C264.533,3.821 260.713,0 256,0C251.287,0 247.467,3.821 247.467,8.533C247.467,13.15 242.466,16.759 233.634,22.758C223.516,28.892 214.669,36.911 207.573,46.379C205.563,49.348 203.818,52.489 202.359,55.765C199.448,53.642 196.349,51.788 193.101,50.227C182.222,45.577 170.549,43.065 158.72,42.829C148.096,42.061 141.969,41.438 139.674,37.461C137.301,33.415 132.108,32.042 128.045,34.387C123.983,36.732 122.575,41.917 124.894,45.995C127.198,49.971 124.681,55.586 120.03,65.169C114.351,75.506 110.701,86.835 109.278,98.543C108.971,102.16 109.014,105.797 109.406,109.406C105.834,109.036 102.236,108.982 98.654,109.244C86.916,110.661 75.558,114.314 65.195,120.004C55.603,124.655 49.988,127.172 46.012,124.868C43.37,123.32 40.101,123.305 37.446,124.83C34.791,126.355 33.156,129.186 33.163,132.249C33.169,135.311 34.816,138.135 37.478,139.648C41.446,141.943 42.078,148.07 42.846,158.694C43.083,170.53 45.598,182.208 50.253,193.092C51.817,196.338 53.671,199.437 55.791,202.351C52.515,203.817 49.374,205.567 46.404,207.582C36.945,214.673 28.935,223.514 22.81,233.626C16.768,242.475 13.15,247.467 8.533,247.467C3.821,247.467 0,251.287 0,256C0,260.713 3.821,264.533 8.533,264.533C13.15,264.533 16.768,269.525 22.758,278.366C28.891,288.488 36.913,297.335 46.387,304.427C49.354,306.441 52.496,308.186 55.774,309.641C53.65,312.552 51.797,315.651 50.236,318.899C45.583,329.778 43.068,341.451 42.829,353.28C42.061,363.904 41.429,370.031 37.461,372.326C34.799,373.84 33.152,376.664 33.146,379.726C33.139,382.788 34.773,385.619 37.429,387.144C40.084,388.669 43.353,388.655 45.995,387.106C49.971,384.811 55.586,387.319 65.178,391.97C75.514,397.668 86.845,401.335 98.56,402.773C100.198,402.918 101.862,402.995 103.526,402.995C105.502,402.931 107.473,402.766 109.431,402.5C109.041,406.105 108.972,409.738 109.227,413.355C110.643,425.096 114.296,436.456 119.987,446.822C124.638,456.405 127.155,462.02 124.851,465.997C123.303,468.638 123.288,471.907 124.813,474.563C126.338,477.218 129.169,478.853 132.232,478.846C135.294,478.839 138.117,477.192 139.631,474.53C141.926,470.554 148.053,469.931 158.677,469.163C170.513,468.926 182.191,466.411 193.075,461.756C196.321,460.191 199.42,458.338 202.334,456.218C203.799,459.494 205.55,462.634 207.565,465.604C214.658,475.062 223.499,483.071 233.609,489.199C242.466,495.241 247.467,498.85 247.467,503.467C247.467,508.179 251.287,512 256,512C260.713,512 264.533,508.179 264.533,503.467C264.533,498.85 269.534,495.241 278.366,489.242C288.484,483.108 297.331,475.089 304.427,465.621C306.437,462.652 308.182,459.511 309.641,456.235C312.552,458.358 315.651,460.212 318.899,461.773C329.783,466.428 341.462,468.943 353.297,469.18C363.921,469.948 370.048,470.571 372.343,474.547C374.716,478.594 379.91,479.967 383.972,477.622C388.034,475.276 389.442,470.092 387.123,466.014C384.819,462.037 387.337,456.422 391.987,446.839C397.666,436.502 401.316,425.174 402.739,413.466C403.049,409.8 403,406.114 402.594,402.458C404.599,402.654 406.588,402.953 408.567,402.953C410.146,402.953 411.742,402.884 413.329,402.765C425.067,401.347 436.425,397.695 446.788,392.004C456.371,387.354 461.995,384.845 465.971,387.14C468.613,388.689 471.882,388.703 474.537,387.178C477.192,385.653 478.827,382.822 478.82,379.76C478.813,376.698 477.167,373.874 474.505,372.361C470.537,370.065 469.905,363.938 469.137,353.314C468.9,341.479 466.385,329.8 461.73,318.916C460.165,315.67 458.312,312.572 456.192,309.658C459.468,308.192 462.609,306.442 465.579,304.427C475.038,297.336 483.048,288.494 489.173,278.383C495.232,269.525 498.85,264.533 503.467,264.533C508.179,264.533 512,260.713 512,256C512,251.287 508.179,247.467 503.467,247.467ZM411.981,126.293C421.607,127.566 430.903,130.659 439.373,135.407C444.131,137.888 449.093,139.958 454.204,141.594C453.064,146.833 452.376,152.16 452.147,157.517C452.04,167.232 450.073,176.838 446.353,185.813C444.243,190.012 441.494,193.858 438.204,197.214C436.847,197.018 435.465,196.83 434.065,196.702C425.619,171.441 411.895,148.267 393.805,128.717L394.257,128.546C399.945,126.574 405.981,125.807 411.981,126.293ZM270.788,425.916L302.933,366.933L385.399,366.933C356.4,400.852 315.245,422.032 270.788,425.916ZM126.566,366.933L209.067,366.933L241.246,425.916C196.765,422.049 155.583,400.868 126.566,366.933ZM105.139,176.427L148.548,256L105.139,335.607C78.732,285.845 78.732,226.223 105.139,176.461L105.139,176.427ZM241.212,86.084L209.067,145.067L126.566,145.067C155.574,111.14 196.743,89.96 241.212,86.084ZM385.434,145.067L302.933,145.067L270.763,86.084C315.24,89.953 356.42,111.134 385.434,145.067ZM116.779,349.867L256,94.618L395.221,349.867L116.779,349.867ZM283.52,366.933L256,417.382L228.48,366.933L283.52,366.933ZM158.268,238.148L116.779,162.133L199.731,162.133L158.268,238.148ZM312.269,162.133L395.221,162.133L353.732,238.148L312.269,162.133ZM406.861,335.573L363.452,256L406.861,176.461C433.268,226.223 433.268,285.845 406.861,335.607L406.861,335.573ZM326.221,65.647C335.2,61.927 344.807,59.958 354.526,59.844C359.879,59.62 365.204,58.938 370.441,57.805C372.073,62.912 374.143,67.868 376.627,72.619C381.362,81.085 384.444,90.375 385.707,99.994C385.995,104.72 385.526,109.462 384.316,114.039C383.019,114.551 381.756,115.072 380.476,115.652C360.571,97.939 337.126,84.663 311.697,76.706C311.782,76.612 311.859,76.501 311.945,76.407C315.96,71.928 320.809,68.273 326.221,65.647ZM221.645,56.047C227.545,48.345 234.861,41.84 243.2,36.881C247.737,33.998 252.02,30.732 256,27.119C259.98,30.732 264.263,33.998 268.8,36.881C277.137,41.832 284.453,48.328 290.355,56.021C292.947,59.963 294.916,64.28 296.192,68.821C295.339,69.897 294.485,70.963 293.734,72.055C267.6,66.708 240.626,66.999 214.613,72.909C214.613,72.764 214.613,72.619 214.682,72.474C215.924,66.601 218.288,61.023 221.645,56.047ZM126.293,100.019C127.552,90.392 130.634,81.093 135.373,72.619C137.857,67.868 139.927,62.912 141.559,57.805C146.796,58.938 152.121,59.62 157.474,59.844C167.193,59.958 176.8,61.927 185.779,65.647C189.979,67.755 193.826,70.505 197.18,73.796C196.975,75.153 196.796,76.535 196.668,77.935C171.409,86.38 148.237,100.104 128.691,118.195C128.64,118.033 128.563,117.897 128.521,117.734C126.544,112.051 125.785,106.015 126.293,100.019ZM72.627,135.373C81.09,130.636 90.378,127.555 99.994,126.293C104.72,125.992 109.464,126.462 114.039,127.684C114.551,128.981 115.072,130.244 115.652,131.524C97.94,151.418 84.666,174.856 76.715,200.277C76.612,200.192 76.51,200.124 76.416,200.038C71.935,196.029 68.277,191.186 65.647,185.779C61.927,176.803 59.96,167.198 59.853,157.483C59.624,152.126 58.936,146.799 57.796,141.559C62.907,139.924 67.869,137.854 72.627,135.373ZM36.881,268.8C33.998,264.263 30.732,259.98 27.119,256C30.732,252.02 33.998,247.737 36.881,243.2C41.831,234.863 48.324,227.544 56.013,221.636C59.956,219.05 64.273,217.084 68.813,215.808C69.879,216.661 70.946,217.515 72.038,218.266C66.691,244.397 66.981,271.368 72.892,297.378C72.755,297.378 72.602,297.378 72.465,297.31C66.584,296.07 60.998,293.705 56.013,290.347C48.324,284.446 41.831,277.133 36.881,268.8ZM100.028,385.758C90.402,384.485 81.106,381.392 72.636,376.644C67.877,374.163 62.916,372.093 57.805,370.458C58.944,365.218 59.632,359.891 59.861,354.534C59.968,344.819 61.935,335.214 65.655,326.238C67.766,322.039 70.515,318.193 73.805,314.837C75.162,315.034 76.544,315.221 77.943,315.349C86.39,340.61 100.114,363.785 118.204,383.334L117.751,383.505C112.06,385.471 106.019,386.221 100.019,385.707L100.028,385.758ZM185.788,446.345C176.808,450.064 167.201,452.034 157.483,452.147C152.129,452.371 146.805,453.054 141.568,454.187C139.936,449.08 137.866,444.124 135.381,439.373C130.644,430.909 127.56,421.622 126.293,412.006C126.005,407.28 126.474,402.538 127.684,397.961C128.981,397.449 130.244,396.928 131.524,396.348C151.429,414.061 174.874,427.337 200.303,435.294C200.218,435.388 200.141,435.499 200.055,435.593C196.04,440.072 191.191,443.727 185.779,446.353L185.788,446.345ZM290.364,455.945C284.462,463.651 277.143,470.159 268.8,475.119C264.263,478.002 259.98,481.268 256,484.881C252.02,481.268 247.737,478.002 243.2,475.119C234.863,470.168 227.547,463.672 221.645,455.979C219.053,452.037 217.084,447.72 215.808,443.179C216.661,442.103 217.515,441.037 218.266,439.945C244.4,445.292 271.374,445.001 297.387,439.091C297.387,439.236 297.387,439.381 297.318,439.526C296.076,445.399 293.712,450.977 290.355,455.953L290.364,455.945ZM385.707,411.981C384.44,421.61 381.35,430.909 376.602,439.381C374.117,444.132 372.047,449.088 370.415,454.195C365.178,453.062 359.854,452.38 354.5,452.156C344.782,452.042 335.174,450.073 326.195,446.353C321.995,444.245 318.149,441.495 314.795,438.204C314.999,436.847 315.179,435.465 315.307,434.065C340.566,425.62 363.738,411.896 383.283,393.805C383.334,393.967 383.411,394.103 383.454,394.266C385.439,399.947 386.207,405.983 385.707,411.981ZM439.347,376.627C430.892,381.361 421.613,384.442 412.006,385.707C407.28,386.017 402.534,385.547 397.961,384.316C397.449,383.019 396.928,381.756 396.348,380.476C414.063,360.574 427.337,337.128 435.285,311.697C435.388,311.782 435.49,311.851 435.584,311.936C440.065,315.945 443.723,320.788 446.353,326.195C450.073,335.171 452.04,344.776 452.147,354.492C452.376,359.848 453.064,365.176 454.204,370.415C449.092,372.059 444.13,374.137 439.373,376.627L439.347,376.627ZM475.119,268.8C470.169,277.137 463.676,284.456 455.987,290.364C452.044,292.95 447.727,294.916 443.187,296.192C442.121,295.339 441.054,294.485 439.962,293.734C445.309,267.603 445.019,240.632 439.108,214.622C439.245,214.622 439.398,214.622 439.535,214.69C445.416,215.93 451.002,218.295 455.987,221.653C463.676,227.554 470.169,234.867 475.119,243.2C478.002,247.737 481.268,252.02 484.881,256C481.268,259.98 478.002,264.263 475.119,268.8Z" style="fill:white;fill-rule:nonzero;"/>
        </g>
    </g>
</svg>
