<?xml version="1.0" encoding="UTF-8" standalone="no"?>
<!DOCTYPE svg PUBLIC "-//W3C//DTD SVG 1.1//EN" "http://www.w3.org/Graphics/SVG/1.1/DTD/svg11.dtd">
<svg width="100%" height="100%" viewBox="0 0 512 512" version="1.1" xmlns="http://www.w3.org/2000/svg" xmlns:xlink="http://www.w3.org/1999/xlink" xml:space="preserve" xmlns:serif="http://www.serif.com/" style="fill-rule:evenodd;clip-rule:evenodd;stroke-linejoin:round;stroke-miterlimit:2;">
    <g>
        <path d="M464.428,290.273L441.253,231.128C436.901,220.021 433.955,208.332 432.498,196.386C428.282,161.839 414.338,129.47 392.131,102.594C393.511,96.568 394.265,90.306 394.265,83.868C394.265,37.624 356.642,0 310.397,0C291.399,0 272.789,6.533 257.995,18.395C251.493,23.609 245.834,29.766 241.173,36.589C228.328,37.307 215.61,39.365 203.255,42.762C188.852,17.263 161.509,0 130.194,0C83.949,0 46.325,37.624 46.325,83.869C46.325,112.024 60.285,136.964 81.632,152.183C75.038,168.899 70.99,186.419 69.578,204.364C67.89,206.125 66.272,207.959 64.739,209.869C52.865,224.667 46.325,243.285 46.325,262.294C46.325,305.222 78.751,340.699 120.393,345.571C127.684,353.096 135.644,360.03 144.098,366.191C150.198,370.637 153.84,377.86 153.84,385.514L153.84,504.5C153.84,508.642 157.198,512 161.34,512C165.482,512 168.84,508.642 168.84,504.5L168.84,385.513C168.84,373.082 162.894,361.327 152.933,354.068C149.156,351.315 145.492,348.388 141.946,345.321C182.645,339.587 214.062,304.549 214.062,262.293C214.062,223.371 187.653,189.844 149.84,180.761C145.813,179.792 141.763,182.274 140.796,186.302C139.828,190.33 142.309,194.379 146.337,195.346C177.381,202.803 199.063,230.333 199.063,262.293C199.063,300.267 168.169,331.161 130.195,331.161C92.221,331.161 61.326,300.267 61.326,262.293C61.326,230.186 83.131,202.628 114.352,195.277C118.384,194.328 120.883,190.29 119.934,186.258C118.985,182.226 114.949,179.725 110.915,180.676C102.22,182.723 93.924,186.195 86.345,190.852C88.133,180.275 90.935,169.907 94.742,159.849C105.519,164.898 117.529,167.736 130.195,167.736C176.44,167.736 214.063,130.113 214.063,83.868C214.063,74.336 212.442,65.18 209.499,56.635C217.116,54.657 224.873,53.219 232.712,52.338C231.102,56.289 229.779,60.36 228.795,64.528C227.843,68.559 230.339,72.599 234.37,73.551C238.402,74.502 242.441,72.007 243.393,67.976C250.761,36.785 278.314,15 310.397,15C348.371,15 379.265,45.895 379.265,83.869C379.265,121.843 348.371,152.737 310.397,152.737C278.413,152.737 250.879,131.035 243.439,99.962C242.475,95.934 238.427,93.449 234.398,94.415C230.37,95.379 227.886,99.427 228.851,103.456C237.913,141.304 271.446,167.738 310.396,167.738C343.908,167.738 372.878,147.974 386.299,119.496C403.348,142.617 414.116,169.597 417.607,198.205C419.217,211.402 422.474,224.321 427.286,236.602L450.461,295.747C451.003,297.129 450.355,298.662 448.986,299.236L421.287,310.872C418.144,312.192 416.287,315.466 416.766,318.842L425.995,383.802C426.552,387.722 425.505,391.59 423.048,394.695C420.591,397.799 417.067,399.706 413.123,400.063L362.157,404.687C358.293,405.038 355.335,408.277 355.335,412.156L355.335,504.5C355.335,508.642 358.693,512 362.835,512C366.977,512 370.335,508.642 370.335,504.5L370.335,419.006L414.479,415.001C422.556,414.269 429.776,410.363 434.81,404.004C439.844,397.645 441.988,389.721 440.847,381.691L432.431,322.46L454.795,313.064C463.735,309.31 467.965,299.299 464.428,290.273ZM130.194,152.737C92.22,152.737 61.325,121.843 61.325,83.869C61.325,45.895 92.22,15 130.194,15C168.168,15 199.062,45.895 199.062,83.869C199.062,121.843 168.168,152.737 130.194,152.737Z" style="fill:white;fill-rule:nonzero;"/>
        <path d="M98.718,79.211L98.757,79.211C102.881,79.211 106.235,75.878 106.256,71.749C106.277,67.607 102.936,64.232 98.794,64.211L98.659,64.211C94.535,64.211 91.229,67.544 91.208,71.673C91.188,75.814 94.576,79.19 98.718,79.211Z" style="fill:white;fill-rule:nonzero;"/>
        <path d="M161.765,64.211L161.63,64.211C157.506,64.211 154.2,67.544 154.179,71.673C154.158,75.815 157.546,79.19 161.688,79.212L161.728,79.212C165.852,79.212 169.206,75.879 169.227,71.751C169.248,67.607 165.907,64.232 161.765,64.211Z" style="fill:white;fill-rule:nonzero;"/>
        <path d="M156.559,96.217C149.314,102.748 139.952,106.345 130.194,106.345C120.436,106.345 111.073,102.748 103.83,96.217C100.753,93.443 96.011,93.688 93.237,96.765C90.463,99.842 90.709,104.584 93.785,107.358C103.789,116.378 116.72,121.346 130.194,121.346C143.668,121.346 156.598,116.378 166.603,107.358C169.68,104.584 169.925,99.842 167.151,96.766C164.377,93.689 159.634,93.443 156.559,96.217Z" style="fill:white;fill-rule:nonzero;"/>
        <path d="M278.997,64.211L278.862,64.211C274.738,64.211 271.432,67.544 271.411,71.673C271.39,75.815 274.779,79.191 278.921,79.212L278.96,79.212C283.084,79.212 286.438,75.879 286.459,71.75C286.48,67.607 283.139,64.232 278.997,64.211Z" style="fill:white;fill-rule:nonzero;"/>
        <path d="M341.93,79.211C346.054,79.211 349.408,75.878 349.429,71.75C349.45,67.608 346.11,64.233 341.968,64.211L341.833,64.211C337.709,64.211 334.403,67.544 334.382,71.673C334.361,75.815 337.749,79.19 341.891,79.212C341.904,79.211 341.917,79.211 341.93,79.211Z" style="fill:white;fill-rule:nonzero;"/>
        <path d="M273.988,108.275C270.911,111.048 270.666,115.791 273.44,118.867C276.213,121.944 280.957,122.189 284.032,119.415C291.277,112.884 300.639,109.287 310.397,109.287C320.154,109.287 329.517,112.884 336.762,119.415C338.196,120.708 339.992,121.345 341.782,121.345C343.832,121.345 345.874,120.51 347.355,118.867C350.128,115.79 349.883,111.048 346.807,108.275C336.802,99.255 323.871,94.287 310.398,94.287C296.923,94.288 283.992,99.255 273.988,108.275Z" style="fill:white;fill-rule:nonzero;"/>
        <path d="M114.72,258.083C116.557,254.371 115.037,249.872 111.325,248.035L101.987,243.413C98.273,241.575 93.776,243.096 91.939,246.808C90.102,250.52 91.622,255.019 95.334,256.856L104.672,261.478C105.741,262.007 106.876,262.258 107.993,262.258C110.755,262.258 113.412,260.726 114.72,258.083Z" style="fill:white;fill-rule:nonzero;"/>
        <path d="M152.395,262.257C153.512,262.257 154.646,262.007 155.715,261.478L165.052,256.857C168.765,255.02 170.285,250.521 168.448,246.809C166.611,243.096 162.111,241.577 158.4,243.413L149.063,248.034C145.35,249.871 143.83,254.37 145.667,258.082C146.975,260.726 149.633,262.257 152.395,262.257Z" style="fill:white;fill-rule:nonzero;"/>
        <path d="M356.674,323.499C354.508,319.97 349.891,318.863 346.359,321.03C335.559,327.658 323.124,331.161 310.397,331.161C272.423,331.161 241.528,300.267 241.528,262.293C241.528,224.319 272.423,193.424 310.397,193.424C348.371,193.424 379.265,224.319 379.265,262.293C379.265,275.094 375.72,287.595 369.012,298.444C366.834,301.967 367.924,306.589 371.448,308.767C374.971,310.946 379.594,309.855 381.771,306.331C389.945,293.11 394.265,277.881 394.265,262.292C394.265,216.047 356.642,178.423 310.397,178.423C264.152,178.423 226.528,216.047 226.528,262.292C226.528,308.537 264.152,346.16 310.397,346.16C325.895,346.16 341.044,341.89 354.205,333.813C357.735,331.647 358.841,327.029 356.674,323.499Z" style="fill:white;fill-rule:nonzero;"/>
        <path d="M279.037,242.636C274.933,242.575 271.503,245.916 271.46,250.058L271.364,259.3C271.321,263.442 274.644,266.834 278.786,266.877L278.865,266.877C282.971,266.877 286.321,263.57 286.363,259.455L286.459,250.213C286.502,246.071 283.179,242.679 279.037,242.636Z" style="fill:white;fill-rule:nonzero;"/>
        <path d="M341.928,266.877L342.007,266.877C346.149,266.835 349.472,263.442 349.429,259.3L349.334,250.057C349.292,245.941 345.942,242.634 341.836,242.634L341.757,242.634C337.615,242.676 334.292,246.069 334.335,250.211L334.43,259.454C334.472,263.57 337.822,266.877 341.928,266.877Z" style="fill:white;fill-rule:nonzero;"/>
        <path d="M103.49,286.241C103.49,290.383 106.848,293.741 110.99,293.741L145.155,293.741C149.297,293.741 152.655,290.383 152.655,286.241C152.655,282.099 149.297,278.741 145.155,278.741L110.99,278.741C106.848,278.741 103.49,282.099 103.49,286.241Z" style="fill:white;fill-rule:nonzero;"/>
        <path d="M293.575,289.785L327.219,289.785C331.361,289.785 334.719,286.427 334.719,282.285C334.719,278.143 331.361,274.785 327.219,274.785L293.575,274.785C289.433,274.785 286.075,278.143 286.075,282.285C286.075,286.427 289.433,289.785 293.575,289.785Z" style="fill:white;fill-rule:nonzero;"/>
    </g>
</svg>
