<?xml version="1.0" encoding="UTF-8" standalone="no"?>
<!DOCTYPE svg PUBLIC "-//W3C//DTD SVG 1.1//EN" "http://www.w3.org/Graphics/SVG/1.1/DTD/svg11.dtd">
<svg width="100%" height="100%" viewBox="0 0 512 512" version="1.1" xmlns="http://www.w3.org/2000/svg" xmlns:xlink="http://www.w3.org/1999/xlink" xml:space="preserve" xmlns:serif="http://www.serif.com/" style="fill-rule:evenodd;clip-rule:evenodd;stroke-linejoin:round;stroke-miterlimit:2;">
    <g>
        <g>
            <path d="M392.533,0L119.467,0C105.353,0 93.867,11.486 93.867,25.6C93.867,39.714 105.353,51.2 119.467,51.2L392.534,51.2C406.648,51.2 418.134,39.714 418.134,25.6C418.134,11.486 406.647,0 392.533,0ZM392.533,34.133L119.467,34.133C114.765,34.133 110.934,30.31 110.934,25.6C110.934,20.89 114.765,17.067 119.467,17.067L392.534,17.067C397.236,17.067 401.067,20.89 401.067,25.6C401.067,30.31 397.235,34.133 392.533,34.133Z" style="fill:white;fill-rule:nonzero;"/>
        </g>
    </g>
    <g>
        <g>
            <path d="M392.533,460.8L119.467,460.8C105.353,460.8 93.867,472.286 93.867,486.4C93.867,500.514 105.353,512 119.467,512L392.534,512C406.648,512 418.134,500.514 418.134,486.4C418.134,472.286 406.647,460.8 392.533,460.8ZM392.533,494.933L119.467,494.933C114.765,494.933 110.934,491.11 110.934,486.4C110.934,481.69 114.765,477.867 119.467,477.867L392.534,477.867C397.236,477.867 401.067,481.69 401.067,486.4C401.067,491.11 397.235,494.933 392.533,494.933Z" style="fill:white;fill-rule:nonzero;"/>
        </g>
    </g>
    <g>
        <g>
            <path d="M316.809,224.324C360.141,180.992 384,123.383 384,62.114L384,42.667C384,37.948 380.177,34.134 375.467,34.134L136.533,34.134C131.823,34.134 128,37.948 128,42.667L128,62.114C128,123.392 151.859,180.992 195.183,224.324L203.759,232.9C209.843,238.984 213.333,247.398 213.333,256C213.333,264.602 209.843,273.016 203.767,279.1L195.191,287.676C151.859,331.008 128,388.608 128,449.886L128,469.333C128,474.052 131.823,477.866 136.533,477.866L375.466,477.866C380.176,477.866 383.999,474.052 383.999,469.333L383.999,449.886C383.999,388.617 360.14,331.008 316.808,287.676L308.232,279.1C302.062,272.93 298.666,264.73 298.666,256C298.666,247.27 302.062,239.07 308.232,232.9L316.809,224.324ZM296.166,220.834C286.771,230.221 281.6,242.705 281.6,256C281.6,269.295 286.771,281.779 296.166,291.166L304.742,299.742C344.849,339.849 366.933,393.173 366.933,449.886L366.933,460.8L145.067,460.8L145.067,449.886C145.067,393.165 167.151,339.849 207.249,299.742L215.825,291.166C225.229,281.779 230.4,269.286 230.4,256C230.4,242.714 225.229,230.221 215.834,220.834L207.258,212.258C167.151,172.151 145.067,118.826 145.067,62.114L145.067,51.2L366.934,51.2L366.934,62.114C366.934,118.827 344.85,172.151 304.743,212.258L296.166,220.834Z" style="fill:white;fill-rule:nonzero;"/>
        </g>
    </g>
    <g>
        <g>
            <path d="M328.115,143.761C327.253,141.594 324.318,136.533 315.733,136.533C271.394,136.533 251.639,127.035 243.805,121.369C234.034,114.295 221.499,112.443 210.243,116.428C199.5,120.225 191.632,128.673 188.671,139.596C187.903,142.438 187.766,144.281 187.766,144.281C187.638,145.962 188.005,147.78 188.833,149.256C196.829,163.43 206.053,178.38 219.331,191.658L227.898,200.234C240.519,212.838 247.465,229.614 247.465,247.466C247.465,252.185 251.288,255.999 255.998,255.999C260.708,255.999 264.531,252.185 264.531,247.466C264.531,229.623 271.477,212.846 284.089,200.234L292.674,191.649C294.782,189.55 297.529,186.956 300.55,184.123C322.611,163.379 331.887,153.284 328.115,143.761ZM288.845,171.691C285.688,174.669 282.803,177.383 280.602,179.584L272.017,188.169C265.387,194.791 260.011,202.334 255.991,210.509C251.972,202.334 246.596,194.791 239.965,188.169L231.397,179.593C220.918,169.106 213.247,157.56 205.268,143.642C207.376,136.517 212.837,133.615 215.935,132.514C221.891,130.406 228.573,131.405 233.795,135.194C244.666,143.062 266.102,152.337 307.165,153.481C301.892,159.42 293.615,167.211 288.845,171.691Z" style="fill:white;fill-rule:nonzero;"/>
        </g>
    </g>
    <g>
        <g>
            <path d="M349.278,434.534C347.136,406.869 336.043,395.383 323.209,382.071C321.477,380.27 319.668,378.402 317.816,376.422C307.098,364.97 291.96,358.4 276.267,358.4L235.725,358.4C220.041,358.4 204.894,364.971 194.176,376.422C192.324,378.402 190.524,380.262 188.791,382.063C175.948,395.375 164.855,406.869 162.722,434.543C162.534,436.915 163.353,439.253 164.966,441.003C166.587,442.744 168.849,443.734 171.229,443.734L340.769,443.734C343.141,443.734 345.411,442.744 347.032,440.995C348.646,439.245 349.457,436.898 349.278,434.534ZM180.949,426.667C183.842,411.768 190.737,404.634 201.079,393.916C202.871,392.056 204.731,390.119 206.643,388.079C214.144,380.058 224.742,375.467 235.725,375.467L276.267,375.467C287.258,375.467 297.856,380.066 305.357,388.071C307.277,390.136 309.137,392.056 310.938,393.925C321.272,404.643 328.158,411.777 331.06,426.667L180.949,426.667Z" style="fill:white;fill-rule:nonzero;"/>
        </g>
    </g>
    <g>
        <g>
            <path d="M255.744,273.067C251.034,273.067 247.211,276.881 247.211,281.6L247.211,290.133C247.211,294.852 251.034,298.666 255.744,298.666C260.454,298.666 264.277,294.852 264.277,290.133L264.277,281.6C264.277,276.881 260.454,273.067 255.744,273.067Z" style="fill:white;fill-rule:nonzero;"/>
        </g>
    </g>
    <g>
        <g>
            <path d="M255.744,315.733C251.034,315.733 247.211,319.547 247.211,324.266L247.211,332.799C247.211,337.518 251.034,341.332 255.744,341.332C260.454,341.332 264.277,337.518 264.277,332.799L264.277,324.266C264.277,319.548 260.454,315.733 255.744,315.733Z" style="fill:white;fill-rule:nonzero;"/>
        </g>
    </g>
</svg>
