<?xml version="1.0" encoding="UTF-8" standalone="no"?>
<!DOCTYPE svg PUBLIC "-//W3C//DTD SVG 1.1//EN" "http://www.w3.org/Graphics/SVG/1.1/DTD/svg11.dtd">
<svg width="100%" height="100%" viewBox="0 0 512 512" version="1.1" xmlns="http://www.w3.org/2000/svg" xmlns:xlink="http://www.w3.org/1999/xlink" xml:space="preserve" xmlns:serif="http://www.serif.com/" style="fill-rule:evenodd;clip-rule:evenodd;stroke-linejoin:round;stroke-miterlimit:2;">
    <path d="M24,496L88,496C92.418,496 96,492.418 96,488L96,480L360,480C361.375,480 362.727,479.645 363.922,478.973L479.055,414.211C489.508,408.328 496,397.227 496,385.238C496,366.91 481.09,352 462.762,352L461.543,352C456.762,352 451.945,353.059 447.617,355.059L350.242,400L313.884,400C317.853,394.133 320,387.234 320,380C320,362.203 306.727,346.898 289.484,344.461C287.727,344.129 285.863,344 284,344L176,344C173.879,344 171.844,344.844 170.344,346.344L140.688,376L96,376L96,368C96,363.582 92.418,360 88,360L24,360C19.582,360 16,363.582 16,368L16,488C16,492.418 19.582,496 24,496ZM144,392C146.121,392 148.156,391.156 149.656,389.656L179.312,360L284,360C284.855,360 285.711,360.027 286.875,360.242C296.637,361.625 304,370.121 304,380C304,385.293 301.934,390.273 298.062,394.145C294.344,397.922 289.348,400 284,400L216,400L216,416L352,416C353.156,416 354.301,415.75 355.352,415.266L454.324,369.586C456.57,368.547 459.066,368 461.543,368L462.762,368C472.266,368 480,375.734 480,385.238C480,391.457 476.633,397.215 471.211,400.266L357.906,464L96,464L96,392L144,392ZM32,376L80,376L80,480L32,480L32,376Z" style="fill:white;fill-rule:nonzero;"/>
    <path d="M49.238,160L50.457,160C55.238,160 60.055,158.941 64.383,156.941L161.758,112L198.117,112C194.147,117.867 192,124.766 192,132C192,149.797 205.273,165.102 222.516,167.539C224.273,167.871 226.137,168 228,168L336,168C338.121,168 340.156,167.156 341.656,165.656L371.312,136L416,136L416,144C416,148.418 419.582,152 424,152L488,152C492.418,152 496,148.418 496,144L496,24C496,19.582 492.418,16 488,16L424,16C419.582,16 416,19.582 416,24L416,32L152,32C150.625,32 149.273,32.355 148.078,33.027L32.945,97.789C22.492,103.672 16,114.773 16,126.762C16,145.09 30.91,160 49.238,160ZM432,32L480,32L480,136L432,136L432,32ZM40.789,111.734L154.094,48L416,48L416,120L368,120C365.879,120 363.844,120.844 362.344,122.344L332.688,152L228,152C227.145,152 226.289,151.973 225.125,151.758C215.363,150.375 208,141.879 208,132C208,126.707 210.066,121.727 213.938,117.855C217.656,114.078 222.652,112 228,112L296,112L296,96L160,96C158.844,96 157.699,96.25 156.648,96.734L57.676,142.414C55.43,143.453 52.934,144 50.457,144L49.238,144C39.734,144 32,136.266 32,126.762C32,120.543 35.367,114.785 40.789,111.734Z" style="fill:white;fill-rule:nonzero;"/>
    <path d="M256,280C269.234,280 280,269.234 280,256C280,242.766 269.234,232 256,232C242.766,232 232,242.766 232,256C232,269.234 242.766,280 256,280ZM256,248C260.41,248 264,251.59 264,256C264,260.41 260.41,264 256,264C251.59,264 248,260.41 248,256C248,251.59 251.59,248 256,248Z" style="fill:white;fill-rule:nonzero;"/>
    <path d="M256,312C286.879,312 312,286.879 312,256C312,225.121 286.879,200 256,200C225.121,200 200,225.121 200,256C200,286.879 225.121,312 256,312ZM256,216C278.055,216 296,233.945 296,256C296,278.055 278.055,296 256,296C233.945,296 216,278.055 216,256C216,233.945 233.945,216 256,216Z" style="fill:white;fill-rule:nonzero;"/>
    <path d="M193.797,292.285C191.234,287.91 189.137,283.246 187.555,278.422L172.352,283.398C174.281,289.301 176.852,295.012 179.992,300.371L193.797,292.285Z" style="fill:white;fill-rule:nonzero;"/>
    <path d="M172.414,228.414L187.609,233.43C189.195,228.617 191.305,223.957 193.883,219.578L180.086,211.469C176.938,216.828 174.355,222.531 172.414,228.414Z" style="fill:white;fill-rule:nonzero;"/>
    <path d="M168,256C168,259.105 168.164,262.176 168.477,265.195L184.391,263.547C184.133,261.066 184,258.551 184,256C184,253.402 184.137,250.832 184.406,248.305L168.492,246.617C168.168,249.699 168,252.832 168,256Z" style="fill:white;fill-rule:nonzero;"/>
    <path d="M214.359,197.27L205.094,184.223C200.051,187.805 195.363,191.941 191.152,196.516L202.926,207.352C206.383,203.594 210.227,200.203 214.359,197.27Z" style="fill:white;fill-rule:nonzero;"/>
    <path d="M214.238,314.645C210.106,311.699 206.27,308.305 202.84,304.547L191.027,315.344C195.219,319.926 199.902,324.078 204.949,327.676L214.238,314.645Z" style="fill:white;fill-rule:nonzero;"/>
    <path d="M339.648,228.602C337.719,222.699 335.148,216.988 332.008,211.629L318.203,219.715C320.766,224.09 322.863,228.754 324.445,233.578L339.648,228.602Z" style="fill:white;fill-rule:nonzero;"/>
    <path d="M297.762,197.355C301.894,200.301 305.73,203.695 309.16,207.453L320.973,196.656C316.781,192.074 312.098,187.922 307.051,184.324L297.762,197.355Z" style="fill:white;fill-rule:nonzero;"/>
    <path d="M344,256C344,252.895 343.836,249.824 343.523,246.805L327.609,248.453C327.867,250.934 328,253.449 328,256C328,258.598 327.863,261.168 327.594,263.695L343.508,265.383C343.832,262.301 344,259.168 344,256Z" style="fill:white;fill-rule:nonzero;"/>
    <path d="M320.848,315.484L309.074,304.648C305.617,308.406 301.773,311.797 297.641,314.73L306.906,327.777C311.949,324.195 316.637,320.059 320.848,315.484Z" style="fill:white;fill-rule:nonzero;"/>
    <path d="M339.586,283.586L324.391,278.57C322.805,283.383 320.695,288.043 318.117,292.422L331.914,300.531C335.062,295.172 337.645,289.469 339.586,283.586Z" style="fill:white;fill-rule:nonzero;"/>
    <path d="M375.637,265.395L359.684,264.16C359.266,269.547 358.418,274.934 357.164,280.18L372.727,283.898C374.176,277.844 375.152,271.617 375.637,265.395Z" style="fill:white;fill-rule:nonzero;"/>
    <path d="M358.465,318.414C361.715,313.102 364.57,307.484 366.953,301.723L352.172,295.605C350.106,300.598 347.629,305.465 344.816,310.07L358.465,318.414Z" style="fill:white;fill-rule:nonzero;"/>
    <path d="M366.984,210.355C364.609,204.605 361.758,198.988 358.504,193.656L344.848,201.992C347.668,206.613 350.141,211.48 352.195,216.457L366.984,210.355Z" style="fill:white;fill-rule:nonzero;"/>
    <path d="M372.742,228.18L357.18,231.891C358.43,237.137 359.273,242.527 359.688,247.914L375.641,246.688C375.164,240.469 374.188,234.242 372.742,228.18Z" style="fill:white;fill-rule:nonzero;"/>
    <path d="M154.836,231.82L139.273,228.102C137.824,234.156 136.848,240.383 136.363,246.606L152.316,247.84C152.734,242.453 153.582,237.066 154.836,231.82Z" style="fill:white;fill-rule:nonzero;"/>
    <path d="M139.258,283.82L154.82,280.109C153.57,274.863 152.727,269.473 152.312,264.086L136.359,265.312C136.836,271.531 137.812,277.758 139.258,283.82Z" style="fill:white;fill-rule:nonzero;"/>
    <path d="M153.535,193.586C150.285,198.898 147.43,204.516 145.047,210.277L159.828,216.395C161.894,211.402 164.371,206.535 167.184,201.93L153.535,193.586Z" style="fill:white;fill-rule:nonzero;"/>
    <path d="M167.152,310.008C164.332,305.387 161.859,300.52 159.805,295.543L145.016,301.645C147.391,307.395 150.242,313.012 153.496,318.344L167.152,310.008Z" style="fill:white;fill-rule:nonzero;"/>
</svg>
