<?xml version="1.0" encoding="UTF-8" standalone="no"?>
<!DOCTYPE svg PUBLIC "-//W3C//DTD SVG 1.1//EN" "http://www.w3.org/Graphics/SVG/1.1/DTD/svg11.dtd">
<svg width="100%" height="100%" viewBox="0 0 200 350" version="1.1" xmlns="http://www.w3.org/2000/svg" xmlns:xlink="http://www.w3.org/1999/xlink" xml:space="preserve" xmlns:serif="http://www.serif.com/" style="fill-rule:evenodd;clip-rule:evenodd;stroke-linejoin:round;stroke-miterlimit:2;">
    <g transform="matrix(0.985386,0,0,0.993983,11.0647,6.73887)">
        <path d="M191.737,3.281C191.737,-2.272 187.19,-6.78 181.589,-6.78L-1.081,-6.78C-6.682,-6.78 -11.229,-2.272 -11.229,3.281L-11.229,335.278C-11.229,340.831 -6.682,345.339 -1.081,345.339L181.589,345.339C187.19,345.339 191.737,340.831 191.737,335.278L191.737,3.281Z" style="fill:rgb(251,245,222);"/>
    </g>
    <g transform="matrix(0.940602,0,0,0.940602,-777.902,-101.049)">
        <g>
            <g>
                <g>
                    <path d="M833.535,285.948L833.535,137.892L856.986,137.892L856.986,114.439L922.584,114.439L907.762,123.689L907.762,116.353L858.9,116.353L858.9,137.892L867.978,137.892L867.978,148.883L856.987,148.883L856.987,139.805L835.449,139.805L835.449,265.316L843.428,265.316L833.535,285.948ZM835.448,267.229L835.448,277.53L840.386,267.229L835.448,267.229ZM858.899,146.969L866.064,146.969L866.064,139.805L858.899,139.805L858.899,146.969ZM909.675,116.353L909.675,120.24L915.903,116.353L909.675,116.353Z" style="fill:rgb(0,7,55);fill-rule:nonzero;stroke:rgb(0,7,55);stroke-width:1.06px;"/>
                </g>
                <g>
                    <path d="M841.005,166.669L841.005,131.49L840.016,131.49C839.754,131.49 839.495,131.472 839.237,131.436C839.125,132.167 838.87,132.858 838.392,133.445C837.581,134.441 836.262,134.959 834.478,134.985L834.451,133.072C835.643,133.055 836.471,132.773 836.909,132.237C837.2,131.879 837.34,131.401 837.388,130.86C835.16,129.754 833.536,127.332 833.536,124.672L833.536,114.441L843.766,114.441C846.427,114.441 848.848,116.067 849.953,118.294C850.495,118.247 850.976,118.106 851.331,117.815C851.869,117.377 852.151,116.55 852.169,115.356L854.082,115.384C854.056,117.169 853.536,118.486 852.54,119.298C851.954,119.776 851.264,120.031 850.531,120.145C850.567,120.402 850.586,120.662 850.586,120.924L850.586,121.911L885.765,121.911L884.134,123.545C879.794,127.882 877.967,130.71 877.949,130.738L877.671,131.173L877.153,131.179L850.577,131.482L850.267,158.577L849.83,158.856C849.803,158.874 846.976,160.702 842.639,165.039L841.005,166.669ZM842.918,131.49L842.918,162.094C845.615,159.548 847.545,158.111 848.364,157.535L848.66,131.49L842.918,131.49ZM842.918,129.576L848.672,129.576L848.672,123.823L842.918,123.823L842.918,129.576ZM839.271,129.501C839.515,129.55 839.763,129.576 840.016,129.576L841.005,129.576L841.005,124.768C840.695,124.639 840.255,124.517 839.819,124.612C839.385,124.704 839.017,125.002 838.69,125.519C838.642,125.799 838.804,126.646 838.924,127.271C839.054,127.949 839.2,128.717 839.271,129.501ZM850.585,123.823L850.585,129.565L876.631,129.269C877.205,128.448 878.644,126.521 881.19,123.823L850.585,123.823ZM835.448,116.352L835.448,124.67C835.448,126.128 836.15,127.513 837.194,128.437C837.147,128.161 837.093,127.891 837.045,127.63C836.783,126.263 836.595,125.275 837.029,124.565C837.648,123.557 838.458,122.941 839.437,122.737C840.982,122.413 842.31,123.274 842.5,123.404C842.366,123.215 841.508,121.888 841.831,120.342C842.034,119.363 842.648,118.554 843.658,117.935C844.37,117.499 845.357,117.688 846.723,117.95C846.985,118 847.253,118.052 847.532,118.099C846.606,117.055 845.223,116.352 843.764,116.352L835.448,116.352ZM843.865,121.909L848.672,121.909L848.672,120.922C848.672,120.671 848.645,120.422 848.597,120.176C847.811,120.106 847.045,119.96 846.368,119.829C845.74,119.71 844.893,119.546 844.616,119.595C844.094,119.925 843.796,120.298 843.705,120.734C843.614,121.165 843.736,121.604 843.865,121.909Z" style="fill:rgb(0,7,55);fill-rule:nonzero;stroke:rgb(0,7,55);stroke-width:1.06px;"/>
                </g>
            </g>
            <g transform="matrix(1,0,0,1,-4.2526,0)">
                <g>
                    <path d="M1027.51,265.316L1035.49,265.316L1035.49,139.805L1013.95,139.805L1013.95,148.883L1002.96,148.883L1002.96,137.892L1012.03,137.892L1012.03,116.353L963.173,116.353L963.173,123.689L948.354,114.439L1013.95,114.439L1013.95,137.892L1037.4,137.892L1037.4,285.948L1027.51,265.316ZM1030.55,267.229L1035.49,277.53L1035.49,267.229L1030.55,267.229ZM1012.03,139.805L1004.87,139.805L1004.87,146.969L1012.03,146.969L1012.03,139.805ZM955.031,116.353L961.259,120.24L961.259,116.353L955.031,116.353Z" style="fill:rgb(0,7,55);fill-rule:nonzero;stroke:rgb(0,7,55);stroke-width:1.06px;"/>
                </g>
                <g>
                    <path d="M1028.3,165.036C1023.96,160.699 1021.13,158.871 1021.1,158.853L1020.67,158.574L1020.36,131.479L993.781,131.176L993.263,131.17L992.986,130.735C992.967,130.707 991.14,127.879 986.803,123.542L985.17,121.908L1020.35,121.908L1020.35,120.921C1020.35,120.659 1020.37,120.399 1020.4,120.142C1019.67,120.028 1018.98,119.773 1018.39,119.295C1017.4,118.483 1016.88,117.167 1016.85,115.381L1018.77,115.353C1018.78,116.547 1019.07,117.374 1019.6,117.812C1019.96,118.103 1020.44,118.244 1020.98,118.291C1022.09,116.064 1024.51,114.438 1027.17,114.438L1037.4,114.438L1037.4,124.669C1037.4,127.33 1035.77,129.752 1033.55,130.857C1033.59,131.398 1033.73,131.877 1034.03,132.234C1034.46,132.771 1035.29,133.052 1036.48,133.069L1036.46,134.982C1034.67,134.956 1033.35,134.439 1032.54,133.442C1032.06,132.855 1031.81,132.164 1031.7,131.433C1031.44,131.469 1031.18,131.487 1030.92,131.487L1029.93,131.487L1029.93,166.666L1028.3,165.036ZM1022.27,131.49L1022.57,157.535C1023.39,158.111 1025.32,159.548 1028.02,162.094L1028.02,131.49L1022.27,131.49ZM1028.02,123.823L1022.26,123.823L1022.26,129.576L1028.02,129.576L1028.02,123.823ZM1032.01,127.271C1032.13,126.646 1032.29,125.799 1032.24,125.519C1031.92,125.002 1031.55,124.705 1031.12,124.612C1030.68,124.517 1030.24,124.639 1029.93,124.768L1029.93,129.576L1030.92,129.576C1031.17,129.576 1031.42,129.55 1031.66,129.501C1031.73,128.717 1031.88,127.949 1032.01,127.271ZM989.745,123.823C992.293,126.521 993.729,128.448 994.303,129.269L1020.35,129.565L1020.35,123.823L989.745,123.823ZM1027.17,116.353C1025.71,116.353 1024.33,117.055 1023.4,118.1C1023.68,118.052 1023.95,118 1024.21,117.951C1025.58,117.689 1026.57,117.5 1027.27,117.936C1028.28,118.555 1028.9,119.364 1029.1,120.343C1029.42,121.889 1028.56,123.215 1028.43,123.405C1028.62,123.275 1029.95,122.414 1031.5,122.738C1032.48,122.942 1033.29,123.557 1033.9,124.566C1034.34,125.276 1034.15,126.264 1033.89,127.631C1033.84,127.892 1033.79,128.162 1033.74,128.438C1034.79,127.514 1035.49,126.129 1035.49,124.671L1035.49,116.354L1027.17,116.354L1027.17,116.353ZM1027.23,120.733C1027.14,120.297 1026.84,119.924 1026.32,119.594C1026.04,119.546 1025.19,119.71 1024.57,119.828C1023.89,119.958 1023.12,120.104 1022.34,120.175C1022.29,120.42 1022.26,120.669 1022.26,120.921L1022.26,121.908L1027.07,121.908C1027.2,121.604 1027.32,121.165 1027.23,120.733Z" style="fill:rgb(0,7,55);fill-rule:nonzero;stroke:rgb(0,7,55);stroke-width:1.06px;"/>
                </g>
            </g>
            <g transform="matrix(1,0,0,1,-4.2526,0)">
                <g>
                    <path d="M1037.4,301.019L1037.4,449.072L1013.95,449.072L1013.95,472.524L948.352,472.524L963.171,463.274L963.171,470.61L1012.03,470.61L1012.03,449.071L1002.96,449.071L1002.96,438.081L1013.95,438.081L1013.95,447.157L1035.48,447.157L1035.48,321.649L1027.51,321.649L1037.4,301.019ZM1035.49,319.736L1035.49,309.435L1030.55,319.736L1035.49,319.736ZM1012.03,439.995L1004.87,439.995L1004.87,447.158L1012.03,447.158L1012.03,439.995ZM961.259,470.61L961.259,466.724L955.031,470.61L961.259,470.61Z" style="fill:rgb(0,7,55);fill-rule:nonzero;stroke:rgb(0,7,55);stroke-width:1.06px;"/>
                </g>
                <g>
                    <path d="M1029.93,420.296L1029.93,455.474L1030.92,455.474C1031.18,455.474 1031.44,455.492 1031.7,455.527C1031.81,454.797 1032.07,454.105 1032.54,453.519C1033.36,452.522 1034.67,452.004 1036.46,451.978L1036.49,453.891C1035.29,453.908 1034.46,454.189 1034.03,454.726C1033.74,455.083 1033.59,455.562 1033.55,456.103C1035.78,457.208 1037.4,459.63 1037.4,462.292L1037.4,472.522L1027.17,472.522C1024.51,472.522 1022.09,470.897 1020.98,468.671C1020.44,468.718 1019.96,468.859 1019.6,469.149C1019.07,469.586 1018.78,470.414 1018.77,471.607L1016.85,471.579C1016.88,469.795 1017.4,468.478 1018.4,467.666C1018.98,467.188 1019.67,466.934 1020.4,466.82C1020.37,466.564 1020.35,466.304 1020.35,466.042L1020.35,465.053L985.171,465.053L986.804,463.421C991.141,459.083 992.968,456.255 992.987,456.228L993.264,455.793L993.782,455.786L1020.36,455.483L1020.67,428.389L1021.11,428.11C1021.13,428.092 1023.96,426.264 1028.3,421.927L1029.93,420.296ZM1028.02,455.474L1028.02,424.87C1025.32,427.415 1023.39,428.852 1022.57,429.428L1022.27,455.473L1028.02,455.474ZM1028.02,457.388L1022.26,457.387L1022.26,463.141L1028.02,463.141L1028.02,457.388ZM1031.66,457.462C1031.42,457.414 1031.17,457.388 1030.92,457.388L1029.93,457.388L1029.93,462.196C1030.24,462.323 1030.68,462.446 1031.12,462.352C1031.55,462.26 1031.92,461.962 1032.24,461.445C1032.29,461.165 1032.13,460.317 1032.01,459.693C1031.88,459.015 1031.73,458.247 1031.66,457.462ZM1020.35,463.141L1020.35,457.398L994.303,457.695C993.73,458.515 992.293,460.443 989.745,463.141L1020.35,463.141ZM1035.49,470.609L1035.49,462.293C1035.49,460.835 1034.79,459.45 1033.74,458.526C1033.79,458.802 1033.84,459.072 1033.89,459.333C1034.15,460.701 1034.34,461.689 1033.9,462.398C1033.29,463.407 1032.48,464.022 1031.5,464.226C1029.95,464.55 1028.62,463.689 1028.43,463.559C1028.57,463.749 1029.42,465.075 1029.1,466.621C1028.9,467.6 1028.28,468.41 1027.27,469.028C1026.57,469.463 1025.58,469.274 1024.21,469.013C1023.95,468.963 1023.68,468.91 1023.4,468.863C1024.33,469.908 1025.71,470.61 1027.17,470.61L1035.49,470.609ZM1027.07,465.054L1022.26,465.054L1022.26,466.043C1022.26,466.294 1022.29,466.543 1022.34,466.788C1023.12,466.858 1023.89,467.005 1024.57,467.135C1025.19,467.255 1026.04,467.418 1026.32,467.369C1026.84,467.04 1027.14,466.667 1027.23,466.231C1027.32,465.799 1027.2,465.36 1027.07,465.054Z" style="fill:rgb(0,7,55);fill-rule:nonzero;stroke:rgb(0,7,55);stroke-width:1.06px;"/>
                </g>
            </g>
            <g>
                <g>
                    <path d="M843.427,321.649L835.448,321.649L835.448,447.157L856.988,447.157L856.988,438.081L867.977,438.081L867.977,449.071L858.899,449.071L858.899,470.61L907.761,470.61L907.761,463.274L922.583,472.524L856.985,472.524L856.987,449.072L833.534,449.072L833.534,301.019L843.427,321.649ZM840.389,319.736L835.449,309.435L835.449,319.736L840.389,319.736ZM858.899,447.157L866.064,447.157L866.064,439.994L858.899,439.994L858.899,447.157ZM915.902,470.61L909.674,466.724L909.674,470.61L915.902,470.61Z" style="fill:rgb(0,7,55);fill-rule:nonzero;stroke:rgb(0,7,55);stroke-width:1.06px;"/>
                </g>
                <g>
                    <path d="M842.639,421.929C846.976,426.266 849.803,428.094 849.83,428.112L850.267,428.391L850.577,455.485L877.153,455.788L877.671,455.795L877.949,456.23C877.967,456.257 879.794,459.085 884.131,463.423L885.765,465.055L850.588,465.055L850.588,466.044C850.588,466.306 850.567,466.566 850.531,466.822C851.263,466.936 851.954,467.19 852.54,467.668C853.536,468.48 854.056,469.797 854.082,471.581L852.169,471.609C852.151,470.415 851.869,469.588 851.331,469.151C850.977,468.86 850.495,468.72 849.953,468.673C848.849,470.899 846.43,472.524 843.766,472.524L833.536,472.524L833.536,462.294C833.536,459.632 835.163,457.211 837.388,456.105C837.34,455.564 837.2,455.085 836.909,454.728C836.472,454.19 835.646,453.91 834.451,453.893L834.478,451.98C836.264,452.006 837.582,452.524 838.392,453.521C838.87,454.107 839.126,454.798 839.24,455.529C839.495,455.494 839.755,455.476 840.016,455.476L841.005,455.476L841.005,420.298L842.639,421.929ZM848.66,455.473L848.364,429.428C847.545,428.852 845.615,427.415 842.918,424.87L842.918,455.474L848.66,455.473ZM842.918,463.141L848.672,463.141L848.672,457.387L842.918,457.388L842.918,463.141ZM838.925,459.692C838.805,460.316 838.643,461.164 838.691,461.444C839.018,461.961 839.386,462.258 839.82,462.351C840.256,462.445 840.696,462.323 841.006,462.195L841.006,457.387L840.017,457.387C839.767,457.387 839.518,457.413 839.272,457.461C839.203,458.247 839.054,459.015 838.925,459.692ZM881.189,463.141C878.641,460.443 877.205,458.515 876.63,457.695L850.586,457.398L850.586,463.141L881.189,463.141ZM843.766,470.61C845.225,470.61 846.608,469.908 847.534,468.863C847.256,468.91 846.987,468.964 846.725,469.013C845.359,469.274 844.371,469.462 843.66,469.028C842.653,468.41 842.038,467.6 841.833,466.621C841.51,465.075 842.37,463.749 842.502,463.559C842.312,463.689 840.983,464.55 839.439,464.226C838.46,464.022 837.65,463.407 837.034,462.398C836.596,461.689 836.785,460.701 837.048,459.333C837.098,459.072 837.15,458.802 837.196,458.526C836.152,459.45 835.45,460.835 835.45,462.293L835.45,470.609L843.766,470.61ZM843.704,466.23C843.797,466.666 844.093,467.039 844.615,467.368C844.892,467.417 845.742,467.254 846.367,467.134C847.045,467.004 847.81,466.857 848.596,466.787C848.646,466.543 848.671,466.293 848.671,466.042L848.671,465.053L843.864,465.053C843.736,465.36 843.614,465.799 843.704,466.23Z" style="fill:rgb(0,7,55);fill-rule:nonzero;stroke:rgb(0,7,55);stroke-width:1.06px;"/>
                </g>
            </g>
        </g>
        <g transform="matrix(0.964427,0,0,0.989782,-210.421,7.27806)">
            <g>
                <path d="M1177.81,351.813C1162.15,351.813 1147.45,345.691 1136.41,334.573C1135.62,333.771 1135.53,332.505 1136.21,331.603C1136.89,330.701 1138.13,330.436 1139.12,330.982C1145.41,334.45 1152.55,336.284 1159.77,336.284C1183.37,336.284 1202.57,317.083 1202.57,293.482C1202.57,269.88 1183.37,250.68 1159.77,250.68C1152.55,250.68 1145.41,252.513 1139.12,255.982C1138.13,256.529 1136.89,256.264 1136.21,255.361C1135.53,254.459 1135.62,253.194 1136.41,252.39C1147.45,241.272 1162.15,235.15 1177.81,235.15C1209.98,235.15 1236.14,261.317 1236.14,293.482C1236.14,325.647 1209.98,351.813 1177.81,351.813ZM1150.67,339.948C1158.82,344.724 1168.12,347.269 1177.81,347.269C1207.47,347.269 1231.6,323.139 1231.6,293.482C1231.6,263.823 1207.47,239.696 1177.81,239.696C1168.12,239.696 1158.82,242.24 1150.68,247.015C1153.66,246.433 1156.71,246.135 1159.77,246.135C1185.88,246.135 1207.12,267.375 1207.12,293.482C1207.12,319.589 1185.88,340.829 1159.77,340.829C1156.71,340.83 1153.66,340.532 1150.67,339.948Z" style="fill:rgb(0,7,55);fill-rule:nonzero;"/>
            </g>
            <g>
                <path d="M1208.13,256.869C1207.82,256.869 1207.51,256.744 1207.29,256.497C1198.11,246.434 1185.63,240.159 1172.14,238.829C1171.52,238.767 1171.06,238.211 1171.12,237.587C1171.18,236.962 1171.74,236.503 1172.36,236.567C1186.41,237.952 1199.42,244.486 1208.97,254.966C1209.39,255.43 1209.36,256.149 1208.89,256.571C1208.68,256.771 1208.4,256.869 1208.13,256.869Z" style="fill:rgb(0,7,55);fill-rule:nonzero;"/>
            </g>
            <g>
                <path d="M1218.71,273.706C1218.26,273.706 1217.84,273.435 1217.66,272.992C1216.53,270.175 1215.14,267.43 1213.55,264.832C1213.22,264.297 1213.39,263.598 1213.93,263.27C1214.46,262.941 1215.16,263.11 1215.49,263.645C1217.15,266.351 1218.59,269.209 1219.77,272.144C1220,272.726 1219.72,273.388 1219.14,273.623C1219,273.679 1218.85,273.706 1218.71,273.706Z" style="fill:rgb(0,7,55);fill-rule:nonzero;"/>
            </g>
            <g>
                <path d="M1172.25,350.403C1171.67,350.403 1171.18,349.965 1171.12,349.379C1171.06,348.754 1171.52,348.198 1172.14,348.136C1200.34,345.357 1221.61,321.86 1221.61,293.483C1221.61,288.456 1220.93,283.475 1219.59,278.679C1219.42,278.075 1219.77,277.448 1220.38,277.279C1220.98,277.109 1221.61,277.464 1221.78,278.068C1223.17,283.062 1223.88,288.25 1223.88,293.483C1223.88,307.77 1218.59,321.448 1208.96,331.999C1199.41,342.479 1186.41,349.013 1172.36,350.398C1172.32,350.401 1172.29,350.403 1172.25,350.403Z" style="fill:rgb(0,7,55);fill-rule:nonzero;"/>
            </g>
            <g>
                <path d="M1172.25,350.403C1172.21,350.403 1172.17,350.402 1172.14,350.398C1158.97,349.101 1146.57,343.197 1137.22,333.773C1136.82,333.372 1136.78,332.738 1137.12,332.287C1137.46,331.836 1138.08,331.704 1138.57,331.977C1145.03,335.538 1152.36,337.42 1159.77,337.42C1184,337.42 1203.7,317.709 1203.7,293.482C1203.7,269.253 1184,249.543 1159.77,249.543C1152.36,249.543 1145.03,251.426 1138.57,254.986C1138.08,255.259 1137.46,255.126 1137.12,254.675C1136.78,254.224 1136.82,253.591 1137.22,253.19C1146.57,243.767 1158.97,237.863 1172.14,236.565C1172.76,236.5 1173.32,236.96 1173.38,237.585C1173.44,238.21 1172.99,238.765 1172.36,238.827C1162.18,239.83 1152.48,243.702 1144.39,249.897C1149.31,248.166 1154.52,247.27 1159.77,247.27C1185.25,247.27 1205.98,267.999 1205.98,293.48C1205.98,318.96 1185.25,339.69 1159.77,339.69C1154.52,339.69 1149.31,338.793 1144.39,337.063C1152.48,343.259 1162.18,347.13 1172.36,348.133C1172.99,348.195 1173.44,348.751 1173.38,349.376C1173.32,349.965 1172.83,350.403 1172.25,350.403Z" style="fill:rgb(0,7,55);fill-rule:nonzero;"/>
            </g>
        </g>
    </g>
</svg>
