<?xml version="1.0" encoding="UTF-8" standalone="no"?>
<!DOCTYPE svg PUBLIC "-//W3C//DTD SVG 1.1//EN" "http://www.w3.org/Graphics/SVG/1.1/DTD/svg11.dtd">
<svg width="100%" height="100%" viewBox="0 0 511 511" version="1.1" xmlns="http://www.w3.org/2000/svg" xmlns:xlink="http://www.w3.org/1999/xlink" xml:space="preserve" xmlns:serif="http://www.serif.com/" style="fill-rule:evenodd;clip-rule:evenodd;stroke-linejoin:round;stroke-miterlimit:2;">
    <path d="M133.322,413.679L117.593,416.456C113.532,417.174 109.658,414.467 108.94,410.406L106.163,394.665C105.691,391.614 103.607,389.051 100.709,387.974C97.814,386.898 94.565,387.475 92.212,389.476C89.86,391.481 88.779,394.602 89.384,397.63L92.154,413.37C94.237,425.066 104.399,433.594 116.278,433.621C117.706,433.617 119.134,433.492 120.538,433.246L136.279,430.465C139.279,429.938 141.768,427.847 142.809,424.984C143.847,422.124 143.285,418.922 141.327,416.593C139.369,414.26 136.314,413.148 133.314,413.679L133.322,413.679Z" style="fill:white;fill-rule:nonzero;"/>
    <path d="M297.815,377.075L295.045,361.334C294.515,358.338 292.428,355.849 289.564,354.807C286.701,353.766 283.502,354.331 281.169,356.29C278.836,358.248 277.728,361.303 278.259,364.303L281.029,380.032C281.372,381.982 280.931,383.987 279.8,385.606C278.665,387.229 276.933,388.333 274.986,388.673L259.245,391.462C254.911,392.246 251.891,396.202 252.274,400.587C252.656,404.975 256.315,408.346 260.72,408.369C261.219,408.373 261.718,408.33 262.21,408.241L277.943,405.463C284.345,404.336 290.032,400.711 293.762,395.386C297.487,390.065 298.946,383.476 297.815,377.075Z" style="fill:white;fill-rule:nonzero;"/>
    <path d="M199.754,54.1L215.49,51.323C217.441,50.968 219.45,51.412 221.065,52.555C222.688,53.691 223.792,55.423 224.135,57.373L226.913,73.11C227.631,77.179 231.161,80.144 235.288,80.152C235.788,80.152 236.287,80.109 236.779,80.023C239.006,79.629 240.988,78.369 242.283,76.516C243.578,74.663 244.085,72.373 243.691,70.145L240.922,54.416C238.546,41.098 225.852,32.215 212.526,34.54L196.785,37.31C193.789,37.841 191.3,39.931 190.258,42.791C189.217,45.654 189.782,48.853 191.741,51.186C193.699,53.519 196.754,54.631 199.754,54.1Z" style="fill:white;fill-rule:nonzero;"/>
    <path d="M58.047,79.102L73.788,76.36C78.422,75.541 81.52,71.117 80.7,66.482C79.881,61.844 75.457,58.75 70.823,59.57L55.09,62.347C41.771,64.715 32.881,77.417 35.218,90.743L37.987,106.484C38.705,110.553 42.24,113.522 46.371,113.522C46.874,113.522 47.369,113.479 47.865,113.397C50.088,113.003 52.07,111.743 53.365,109.89C54.661,108.037 55.168,105.747 54.774,103.519L51.996,87.778C51.653,85.832 52.098,83.823 53.233,82.204C54.368,80.585 56.1,79.481 58.047,79.137L58.047,79.102Z" style="fill:white;fill-rule:nonzero;"/>
    <path d="M186.49,303.216C188.741,296.447 188.928,289.16 187.028,282.286C190.867,280.726 194.518,278.744 197.92,276.38C201.053,279.138 203.124,282.903 203.776,287.022C208.18,305.466 220.281,311.338 226.733,311.899C226.987,311.911 227.241,311.911 227.49,311.899C231.941,311.915 235.682,308.56 236.151,304.136C236.389,301.909 235.722,299.681 234.298,297.949C232.878,296.221 230.822,295.133 228.59,294.934C228.36,294.883 222.906,293.72 220.351,283C218.908,275.994 215.412,269.573 210.31,264.56C210.907,263.803 211.531,263.077 212.085,262.274C213.887,259.672 215.471,256.921 216.813,254.05C220.913,254.862 224.6,257.089 227.229,260.343C233.209,267.431 241.893,271.691 251.166,272.077C254.049,272.112 256.904,271.531 259.542,270.372C263.837,268.367 265.733,263.296 263.805,258.969C262.896,256.918 261.207,255.318 259.109,254.53C257.01,253.742 254.681,253.828 252.648,254.776C252.445,254.862 247.117,256.566 239.568,248.589C234.816,243.252 228.586,239.445 221.67,237.654C222.247,233.554 222.368,229.399 222.029,225.272C225.977,223.946 230.26,224.035 234.145,225.529C252.36,230.932 263.462,223.388 267.168,218.078C269.907,214.205 269.025,208.852 265.194,206.055C263.38,204.737 261.118,204.202 258.91,204.569C256.698,204.936 254.728,206.172 253.44,208.006C253.28,208.177 249.539,212.32 239.014,209.192C232.242,206.945 224.955,206.753 218.073,208.646C216.513,204.819 214.527,201.179 212.159,197.789C214.913,194.637 218.685,192.554 222.821,191.91C241.261,187.502 247.136,175.4 247.698,168.952C248.123,164.228 244.682,160.034 239.966,159.535C237.742,159.305 235.519,159.976 233.79,161.396C232.062,162.816 230.974,164.868 230.763,167.091C230.763,167.321 229.554,172.779 218.834,175.334C211.816,176.774 205.391,180.277 200.374,185.391C197.12,182.852 193.598,180.675 189.876,178.896C190.684,174.784 192.911,171.09 196.172,168.457C209.935,155.427 208.956,142.038 206.237,136.14C204.232,131.853 199.161,129.957 194.834,131.88C192.786,132.789 191.187,134.478 190.399,136.577C189.611,138.676 189.697,141.001 190.641,143.033C190.719,143.248 192.439,148.557 184.453,156.117C179.117,160.865 175.305,167.095 173.511,174.012C169.415,173.438 165.264,173.321 161.137,173.657C159.853,169.713 159.974,165.441 161.488,161.579C166.891,143.4 159.35,132.27 154.041,128.556C150.163,125.829 144.815,126.707 142.014,130.534C140.695,132.344 140.161,134.607 140.527,136.819C140.894,139.027 142.135,140.997 143.968,142.284C144.147,142.44 148.287,146.181 145.15,156.714C142.903,163.487 142.716,170.77 144.608,177.651C140.769,179.208 137.122,181.186 133.724,183.55C130.591,180.792 128.52,177.027 127.868,172.904C123.464,154.463 111.363,148.592 104.91,148.03C100.186,147.601 95.996,151.042 95.493,155.759C95.255,157.986 95.922,160.214 97.342,161.946C98.766,163.674 100.822,164.762 103.053,164.961C103.284,164.961 108.737,166.171 111.293,176.895C112.744,183.885 116.247,190.287 121.35,195.284C120.753,196.049 120.132,196.775 119.578,197.578C117.772,200.18 116.188,202.93 114.846,205.802C110.746,204.982 107.064,202.759 104.434,199.509C91.413,185.758 78.016,186.729 72.118,189.444C67.827,191.45 65.931,196.521 67.858,200.847C68.763,202.899 70.456,204.495 72.555,205.287C74.654,206.075 76.979,205.985 79.011,205.041C79.226,204.963 84.543,203.262 92.091,211.228C96.843,216.573 103.073,220.388 109.99,222.198C109.424,226.29 109.307,230.433 109.639,234.553C105.695,235.879 101.407,235.785 97.522,234.287C79.343,228.869 68.213,236.421 64.499,241.731C62.634,244.329 62.373,247.75 63.816,250.606C65.256,253.461 68.17,255.279 71.369,255.322C74.068,255.326 76.596,254.003 78.133,251.784C78.297,251.616 82.027,247.473 92.563,250.602C99.336,252.849 106.623,253.036 113.501,251.136C115.053,254.975 117.031,258.626 119.399,262.02C116.645,265.161 112.88,267.236 108.753,267.883C90.32,272.288 84.449,284.381 83.88,290.834C83.447,295.558 86.883,299.751 91.6,300.259L92.392,300.259C96.753,300.325 100.428,297.013 100.81,292.667C100.853,292.437 102.02,286.979 112.744,284.424C119.746,282.985 126.163,279.489 131.176,274.387C131.941,274.983 132.667,275.604 133.466,276.158C136.072,277.964 138.823,279.548 141.69,280.897C140.882,284.994 138.655,288.68 135.401,291.302C121.63,304.331 122.617,317.72 125.336,323.618C126.78,326.692 129.866,328.662 133.263,328.678C134.465,328.678 135.651,328.417 136.739,327.913C138.787,327.004 140.383,325.311 141.175,323.213C141.963,321.118 141.873,318.789 140.933,316.756C140.855,316.534 139.135,311.224 147.12,303.676C152.461,298.924 156.268,292.698 158.063,285.778C160.602,286.152 163.165,286.347 165.732,286.367C167.265,286.367 168.818,286.086 170.367,285.957C171.787,289.952 171.72,294.325 170.179,298.273C164.776,316.452 172.321,327.582 177.63,331.296C179.105,332.325 180.864,332.875 182.667,332.872C185.433,332.899 188.039,331.573 189.646,329.318C190.964,327.508 191.503,325.241 191.136,323.033C190.773,320.821 189.533,318.847 187.703,317.56C187.496,317.482 183.357,313.748 186.49,303.216ZM127.049,236.983C127.049,236.819 127.049,236.675 126.975,236.515C124.002,219.011 133.104,201.686 149.199,194.196C165.295,186.71 184.411,190.915 195.884,204.464C195.962,204.573 196.028,204.682 196.114,204.795C200.483,209.995 203.421,216.245 204.634,222.927C204.634,223.083 204.634,223.236 204.704,223.388C208.277,244.668 194.093,264.872 172.863,268.734L172.438,268.804C151.15,272.405 130.923,258.224 127.049,236.983Z" style="fill:white;fill-rule:nonzero;"/>
    <path d="M476.84,82.469L295.779,48.647C288.039,47.168 280.038,47.886 272.684,50.714L269.95,35.207C267.983,24.077 261.679,14.184 252.422,7.701C243.161,1.221 231.707,-1.315 220.581,0.648L35.881,33.245C24.751,35.211 14.858,41.515 8.378,50.773C1.898,60.03 -0.641,71.483 1.325,82.613L63.083,432.579C66.684,452.904 84.313,467.736 104.953,467.802C107.466,467.798 109.978,467.576 112.451,467.135L185.92,454.176C191.905,465.789 202.91,473.993 215.748,476.416L396.918,510.25C399.551,510.749 402.224,510.999 404.904,510.999C425.369,510.937 442.885,496.3 446.583,476.17L510.927,132.239C513.014,121.117 510.596,109.624 504.202,100.289C497.808,90.954 487.962,84.544 476.84,82.477L476.84,82.469ZM327.038,358.728L324.03,341.684C343.906,332.181 358.684,314.525 364.539,293.287C370.399,272.05 366.759,249.314 354.564,230.968C346.376,218.613 334.618,209.055 320.859,203.559C329.285,202.178 337.891,202.267 346.29,203.824C386.038,212.313 412.698,249.782 407.685,290.116C402.672,330.453 367.656,360.261 327.038,358.763L327.038,358.728ZM304.111,216.315C318.963,219.1 332.047,227.796 340.364,240.408C349.344,253.957 352.348,270.606 348.662,286.433C344.975,302.264 334.926,315.875 320.886,324.059L301.857,216.026C302.606,216.12 303.362,216.179 304.111,216.315ZM109.494,450.341C95.591,452.795 82.331,443.518 79.873,429.615L18.111,79.648C15.661,65.745 24.946,52.489 38.846,50.035L223.538,17.438C225.021,17.176 226.527,17.044 228.036,17.044C240.422,17.071 251.01,25.973 253.159,38.172L314.917,388.13C316.099,394.805 314.574,401.679 310.689,407.234C306.799,412.789 300.862,416.573 294.183,417.751L109.494,450.341ZM494.164,129.06L429.847,473.061C428.642,479.736 424.823,485.65 419.232,489.492C413.642,493.331 406.749,494.782 400.09,493.514L218.908,459.68C213.189,458.541 208.043,455.455 204.345,450.946L230.065,446.405C231.528,447.017 233.049,447.485 234.606,447.801L250.124,450.7C250.643,450.797 251.166,450.844 251.693,450.844C255.793,450.84 259.307,447.918 260.064,443.889C260.216,442.972 260.216,442.036 260.064,441.119L297.218,434.557C320.379,430.445 335.843,408.358 331.774,385.189L330.132,375.901C330.686,375.901 331.247,376.018 331.836,376.018C380.389,375.046 420.481,337.787 425.01,289.437C429.535,241.083 397.059,197.032 349.528,187.061C332.117,183.881 314.164,185.793 297.815,192.565L285.886,124.858C287.27,123.625 288.214,121.975 288.569,120.153L291.468,104.643C292.213,100.706 296.001,98.116 299.937,98.85L315.448,101.744C320.059,102.575 324.475,99.528 325.337,94.921C326.195,90.318 323.176,85.878 318.577,84.993L303.066,82.094C294.335,80.491 285.429,83.799 279.858,90.708L275.871,68.125C280.974,65.296 286.904,64.333 292.642,65.39L473.727,99.224C480.397,100.465 486.296,104.303 490.135,109.897C493.969,115.492 495.424,122.381 494.18,129.052L494.164,129.06Z" style="fill:white;fill-rule:nonzero;"/>
    <path d="M414.114,431.924C409.487,431.062 405.04,434.116 404.178,438.743L401.272,454.25C400.527,458.182 396.747,460.773 392.81,460.047L377.292,457.148C372.681,456.317 368.261,459.364 367.403,463.971C366.544,468.579 369.564,473.014 374.163,473.904L389.674,476.802C391.164,477.083 392.674,477.223 394.191,477.227C405.883,477.208 415.905,468.871 418.054,457.379L420.961,441.868C421.374,439.644 420.886,437.343 419.603,435.474C418.319,433.609 416.346,432.334 414.114,431.924Z" style="fill:white;fill-rule:nonzero;"/>
    <path d="M458.048,111.06L442.537,108.161C437.926,107.33 433.506,110.381 432.648,114.984C431.786,119.592 434.809,124.027 439.409,124.917L454.919,127.815C458.856,128.556 461.45,132.348 460.713,136.284L457.818,151.795C457.401,154.019 457.884,156.316 459.164,158.181C460.443,160.046 462.41,161.325 464.633,161.743C465.156,161.836 465.683,161.883 466.209,161.887C470.313,161.883 473.828,158.957 474.581,154.924L477.476,139.413C479.925,126.223 471.234,113.537 458.048,111.06Z" style="fill:white;fill-rule:nonzero;"/>
    <path d="M410.35,151.592C410.865,151.686 411.391,151.733 411.918,151.737C416.018,151.733 419.537,148.807 420.286,144.773L421.733,137.018C422.564,132.407 419.517,127.991 414.91,127.128C410.307,126.27 405.867,129.29 404.982,133.889L403.53,141.644C403.117,143.868 403.601,146.166 404.88,148.03C406.156,149.895 408.126,151.179 410.35,151.592Z" style="fill:white;fill-rule:nonzero;"/>
    <path d="M401.876,157.385C402.294,155.162 401.81,152.868 400.531,150.999C399.251,149.134 397.285,147.855 395.061,147.441L387.314,145.994C384.314,145.413 381.228,146.486 379.235,148.803C377.241,151.12 376.644,154.331 377.666,157.21C378.688,160.093 381.177,162.203 384.185,162.745L391.933,164.197C392.451,164.294 392.982,164.341 393.509,164.341C397.609,164.337 401.124,161.415 401.876,157.385Z" style="fill:white;fill-rule:nonzero;"/>
    <path d="M407.689,165.839C405.465,165.425 403.172,165.909 401.303,167.189C399.438,168.468 398.159,170.434 397.745,172.658L396.286,180.406C395.873,182.629 396.356,184.923 397.636,186.792C398.916,188.656 400.882,189.936 403.105,190.349C403.624,190.451 404.151,190.502 404.681,190.502C408.781,190.498 412.296,187.58 413.049,183.55L414.508,175.794C414.926,173.571 414.442,171.269 413.162,169.405C411.883,167.536 409.917,166.252 407.689,165.839Z" style="fill:white;fill-rule:nonzero;"/>
    <path d="M433.846,154.694L426.079,153.246C421.468,152.411 417.052,155.462 416.193,160.069C415.331,164.673 418.351,169.112 422.954,169.997L430.709,171.449C431.228,171.542 431.755,171.589 432.285,171.593C436.686,171.589 440.361,168.234 440.766,163.853C441.168,159.472 438.172,155.501 433.846,154.694Z" style="fill:white;fill-rule:nonzero;"/>
    <path d="M109.334,102.376C109.83,102.376 110.325,102.333 110.817,102.247C113.044,101.857 115.026,100.597 116.325,98.744C117.62,96.891 118.131,94.597 117.737,92.37L116.348,84.505C115.428,79.976 111.066,77.003 106.514,77.807C101.965,78.611 98.883,82.894 99.566,87.462L100.947,95.327C101.665,99.4 105.199,102.372 109.334,102.376Z" style="fill:white;fill-rule:nonzero;"/>
    <path d="M88.506,122.283C89.002,122.283 89.497,122.24 89.989,122.155L97.853,120.766C100.853,120.239 103.342,118.152 104.388,115.293C105.429,112.433 104.867,109.234 102.913,106.897C100.955,104.565 97.904,103.453 94.904,103.979L87.032,105.368C82.674,106.129 79.627,110.096 80.01,114.501C80.396,118.905 84.083,122.287 88.506,122.283Z" style="fill:white;fill-rule:nonzero;"/>
    <path d="M113.415,116.939C111.187,117.333 109.209,118.593 107.914,120.446C106.615,122.299 106.108,124.593 106.502,126.816L107.895,134.685C108.613,138.754 112.147,141.719 116.278,141.722C116.777,141.726 117.277,141.683 117.768,141.594C122.403,140.778 125.496,136.358 124.681,131.728L123.292,123.852C122.898,121.624 121.638,119.646 119.785,118.351C117.932,117.052 115.642,116.545 113.415,116.939Z" style="fill:white;fill-rule:nonzero;"/>
    <path d="M127.853,115.339C128.348,115.339 128.844,115.297 129.335,115.211L137.207,113.822C140.207,113.295 142.696,111.204 143.738,108.345C144.779,105.481 144.218,102.282 142.259,99.95C140.305,97.617 137.25,96.505 134.25,97.032L126.386,98.42C122.032,99.185 118.986,103.149 119.368,107.553C119.746,111.957 123.433,115.336 127.853,115.339Z" style="fill:white;fill-rule:nonzero;"/>
    <path d="M223.137,324.792C220.909,325.186 218.931,326.447 217.636,328.3C216.337,330.153 215.83,332.442 216.224,334.67L217.613,342.535C218.33,346.607 221.861,349.576 225.992,349.584C226.492,349.584 226.991,349.541 227.482,349.447C232.117,348.628 235.21,344.212 234.395,339.578L233.006,331.705C232.187,327.071 227.771,323.977 223.137,324.792Z" style="fill:white;fill-rule:nonzero;"/>
    <path d="M211.562,351.187L203.69,352.576C199.356,353.36 196.336,357.316 196.718,361.701C197.101,366.089 200.76,369.46 205.164,369.483C205.664,369.487 206.163,369.444 206.655,369.355L214.519,367.966C219.048,367.049 222.021,362.688 221.221,358.135C220.418,353.582 216.134,350.501 211.562,351.187Z" style="fill:white;fill-rule:nonzero;"/>
    <path d="M230.073,364.147C225.442,364.966 222.349,369.382 223.164,374.016L224.561,381.893C225.278,385.958 228.809,388.922 232.936,388.93C233.435,388.93 233.935,388.887 234.426,388.801C236.662,388.411 238.647,387.143 239.942,385.283C241.242,383.422 241.745,381.124 241.339,378.893L239.95,371.024C239.115,366.401 234.699,363.327 230.073,364.147Z" style="fill:white;fill-rule:nonzero;"/>
    <path d="M260.786,351.152C260.396,348.925 259.132,346.947 257.279,345.652C255.43,344.352 253.136,343.845 250.908,344.239L243.036,345.628C238.682,346.393 235.632,350.36 236.018,354.764C236.4,359.169 240.087,362.547 244.511,362.547C245.01,362.547 245.509,362.5 246.001,362.411L253.865,361.022C256.093,360.628 258.075,359.372 259.37,357.519C260.669,355.67 261.18,353.38 260.786,351.152Z" style="fill:white;fill-rule:nonzero;"/>
    <path d="M362.522,407.507C363.041,407.605 363.564,407.655 364.091,407.651C368.191,407.648 371.705,404.73 372.458,400.7L373.91,392.937C374.74,388.325 371.69,383.906 367.087,383.047C362.479,382.185 358.044,385.209 357.154,389.808L355.707,397.563C355.29,399.787 355.773,402.085 357.053,403.949C358.333,405.814 360.299,407.094 362.522,407.507Z" style="fill:white;fill-rule:nonzero;"/>
    <path d="M354.002,413.304C354.861,408.677 351.81,404.23 347.183,403.368L339.428,401.917C334.883,401.219 330.6,404.254 329.753,408.775C328.911,413.3 331.809,417.673 336.299,418.664L344.055,420.112C344.573,420.209 345.096,420.26 345.623,420.256C349.727,420.256 353.246,417.334 354.002,413.304Z" style="fill:white;fill-rule:nonzero;"/>
    <path d="M359.838,421.773C357.615,421.36 355.317,421.844 353.452,423.123C351.588,424.399 350.308,426.369 349.895,428.592L348.435,436.348C348.022,438.571 348.506,440.865 349.785,442.734C351.061,444.599 353.031,445.878 355.255,446.292C355.773,446.385 356.3,446.436 356.831,446.436C360.931,446.432 364.446,443.51 365.198,439.484L366.65,431.729C367.067,429.505 366.583,427.208 365.308,425.339C364.028,423.474 362.062,422.191 359.838,421.773Z" style="fill:white;fill-rule:nonzero;"/>
    <path d="M368.3,415.98C367.442,420.607 370.492,425.054 375.119,425.916L382.874,427.364C383.393,427.465 383.92,427.512 384.45,427.508C388.851,427.504 392.522,424.149 392.923,419.768C393.325,415.383 390.325,411.42 386.003,410.608L378.248,409.161C376.024,408.744 373.726,409.231 371.861,410.511C369.997,411.787 368.713,413.757 368.3,415.98Z" style="fill:white;fill-rule:nonzero;"/>
</svg>
